<!-- Made with BGJar.com -->
<svg xmlns="http://www.w3.org/2000/svg" version="1.1" xmlns:xlink="http://www.w3.org/1999/xlink" xmlns:svgjs="http://svgjs.com/svgjs" width="1920" height="1080" preserveAspectRatio="none" viewBox="0 0 1920 1080">
    <g mask="url(&quot;#SvgjsMask1018&quot;)" fill="none">
        <path d="M 0,550 C 76.8,542.4 230.4,498 384,512 C 537.6,526 614.4,622.2 768,620 C 921.6,617.8 998.4,494.6 1152,501 C 1305.6,507.4 1382.4,669.2 1536,652 C 1689.6,634.8 1843.2,462.4 1920,415L1920 1080L0 1080z" fill="rgba(29, 29, 47, 0.5)"></path>
        <path d="M 0,1036 C 128,976 384,756 640,736 C 896,716 1024,934.2 1280,936 C 1536,937.8 1792,783.2 1920,745L1920 1080L0 1080z" fill="rgba(19, 19, 33, 1)"></path>
    </g>
    <defs>
        <mask id="SvgjsMask1018">
            <rect width="1920" height="1080" fill="#ffffff"></rect>
        </mask>
    </defs>
</svg>