<!-- Made with BGJar.com -->
<svg xmlns="http://www.w3.org/2000/svg" version="1.1" xmlns:xlink="http://www.w3.org/1999/xlink" xmlns:svgjs="http://svgjs.com/svgjs" width="1440" height="560" preserveAspectRatio="none" viewBox="0 0 1440 560">
    <g mask="url(&quot;#SvgjsMask1045&quot;)" fill="none">
        <path d="M -834.7894979156665,251 C -690.79,292.8 -402.79,465.4 -114.7894979156665,460 C 173.21,454.6 317.21,258.8 605.2105020843335,224 C 893.21,189.2 1158.25,304.6 1325.2105020843335,286 C 1492.17,267.4 1417.04,162 1440,131" stroke="rgba(51, 121, 194, 0.58)" stroke-width="2"></path>
        <path d="M -797.0005722017473,172 C -653,212.6 -365,356 -77.0005722017473,375 C 211,394 355,258.4 642.9994277982527,267 C 931,275.6 1203.6,428.8 1362.9994277982528,418 C 1522.4,407.2 1424.6,254 1440,213" stroke="rgba(51, 121, 194, 0.58)" stroke-width="2"></path>
        <path d="M -1000.1371309762027,122 C -856.14,178.2 -568.14,388.6 -280.1371309762027,403 C 7.86,417.4 151.86,192.6 439.8628690237973,194 C 727.86,195.4 959.84,413.6 1159.8628690237974,410 C 1359.89,406.4 1383.97,222.8 1440,176" stroke="rgba(51, 121, 194, 0.58)" stroke-width="2"></path>
    </g>
    <defs>
        <mask id="SvgjsMask1045">
            <rect width="1440" height="560" fill="#ffffff"></rect>
        </mask>
    </defs>
</svg>